<?xml version="1.0" encoding="UTF-8" standalone="no"?><!DOCTYPE svg PUBLIC "-//W3C//DTD SVG 1.1//EN" "http://www.w3.org/Graphics/SVG/1.1/DTD/svg11.dtd"><svg width="100%" height="100%" viewBox="0 0 97 97" version="1.1" xmlns="http://www.w3.org/2000/svg" xmlns:xlink="http://www.w3.org/1999/xlink" xml:space="preserve" xmlns:serif="http://www.serif.com/" style="fill-rule:evenodd;clip-rule:evenodd;stroke-linejoin:round;stroke-miterlimit:2;"><path id="canter" d="M62.836,76.261c-0.162,-0.113 -0.468,-0.36 -0.59,-0.36c-0.536,0 -0.978,-0.809 -0.978,-1.792c0,-0.917 0.5,-4.001 1.196,-7.384c0.129,-0.624 0.174,-1.436 0.101,-1.803c-0.074,-0.367 0.046,-1.8 0.266,-3.184c0.22,-1.384 0.457,-3.381 0.525,-4.437l0.126,-1.92l-5.487,-0.007c-4.497,-0.006 -5.768,-0.084 -7.047,-0.434c-3.084,-0.844 -5.611,-1.946 -7.621,-3.323l-1.021,-0.7l-3.572,0.556l-0.913,0.776c-0.502,0.427 -2.001,1.49 -3.331,2.361c-1.6,1.049 -3.115,2.317 -4.478,3.745c-3.173,3.328 -3.336,3.589 -3.577,5.731c-0.421,3.732 -0.524,6.699 -0.239,6.875c0.15,0.093 0.272,0.418 0.272,0.722c0,0.74 0.774,1.683 1.901,2.316c0.623,0.35 1.126,0.915 1.553,1.744l0.632,1.226l-0.543,0.206c-0.834,0.317 -2.785,0.048 -3.5,-0.483c-0.354,-0.262 -0.761,-0.831 -0.905,-1.266c-0.194,-0.582 -0.541,-0.923 -1.32,-1.297l-1.058,-0.508l-0.015,-4.56c-0.011,-3.406 -0.121,-5.046 -0.435,-6.48c-0.236,-1.08 -0.354,-2.268 -0.271,-2.716c0.14,-0.746 0.118,-0.779 -0.347,-0.53c-1.02,0.546 -3.175,5.591 -3.895,9.116c-0.301,1.473 -0.407,1.636 -2.151,3.313c-2.187,2.102 -3.546,3.161 -4.067,3.17c-0.656,0.012 -0.954,-1.044 -0.69,-2.439c0.255,-1.343 0.997,-2.354 1.729,-2.354c0.818,0 1.419,-0.468 1.256,-0.979c-0.099,-0.313 0.062,-0.72 0.482,-1.219c1.476,-1.755 1.988,-3.378 2.505,-7.943c0.273,-2.409 0.486,-2.776 2.448,-4.221c2.208,-1.625 3.801,-3.157 4.3,-4.134c0.578,-1.134 1.185,-4.783 1.034,-6.224c-0.106,-1.019 0.384,-4.989 0.765,-6.192c0.162,-0.511 0.122,-0.54 -0.516,-0.386c-2.492,0.6 -5.903,3.876 -7.756,7.449c-0.283,0.545 -5.003,5.635 -6.571,6.29c-0.869,0.359 -1.316,0.645 -1.325,0.148c-0.007,-0.395 0.483,-1.223 -0.319,-0.01c-0.594,0.898 -2.007,0.976 -3.335,2.148c-0.735,0.662 -1.552,1.16 -2.054,1.254c-1.183,0.222 -1.242,-0.013 -0.174,-0.695c0.507,-0.323 1.193,-0.892 1.523,-1.263c0.558,-0.627 0.516,-0.615 -0.6,0.167c-1.301,0.912 -3.179,1.717 -3.517,1.507c-0.327,-0.202 -0.005,-0.553 0.833,-0.908c0.835,-0.353 3.224,-2.464 2.444,-2.159c-0.658,0.258 -3.899,0.408 -4.396,0.203c-0.27,-0.11 0.156,-0.302 1.276,-0.576c1.77,-0.433 3.087,-1.036 4.379,-2.004l0.78,-0.584l-1.792,-0.135c-1.021,-0.077 -2.019,-0.295 -2.321,-0.506c-0.624,-0.437 -0.452,-0.525 1.393,-0.714c3.27,-0.749 6.88,-4.281 9.274,-6.595c5.486,-5.344 8.011,-6.874 11.807,-7.155c1.299,-0.096 2.022,-0.012 3.191,0.37c1.373,0.448 1.592,0.462 2.4,0.149c3.228,-1.252 7.369,-1.682 9.116,-0.948c2.555,1.074 9.025,2.267 12.277,2.264c2.169,-0.002 3.22,-0.341 5.176,-1.668c1.893,-1.285 3.539,-2.171 4.032,-2.171c0.495,0 3.288,-1.443 3.288,-1.699c-0,-0.121 -0.097,-0.221 -0.215,-0.221c-0.118,0 -0.199,-0.27 -0.18,-0.6c0.019,-0.33 0.127,-0.6 0.24,-0.6c0.113,0 0.144,-0.163 0.067,-0.362c-0.113,-0.295 0.026,-0.337 0.755,-0.231c0.491,0.072 1.21,0.039 1.597,-0.071c0.763,-0.219 1.134,-0.776 0.516,-0.776c-0.209,0 -0.38,-0.108 -0.38,-0.24c-0,-0.132 0.135,-0.241 0.3,-0.243c0.203,-0.003 0.186,-0.076 -0.053,-0.227c-0.569,-0.36 -0.062,-0.6 0.561,-0.267c0.313,0.168 0.772,0.258 1.02,0.202c0.375,-0.086 0.329,-0.159 -0.268,-0.43c-1.214,-0.55 -2.273,-1.675 -1.578,-1.675c0.123,0 0.371,0.148 0.552,0.329c0.18,0.18 0.593,0.409 0.917,0.508c0.586,0.179 0.585,0.176 -0.098,-0.549c-0.934,-0.992 -0.726,-1.424 0.316,-0.656c0.856,0.632 2.708,0.858 3.011,0.368c0.081,-0.132 -0.025,-0.24 -0.236,-0.24c-0.669,0 -2.335,-0.98 -2.456,-1.445c-0.066,-0.251 -0.421,-0.514 -0.81,-0.6c-0.381,-0.083 -0.754,-0.251 -0.83,-0.373c-0.215,-0.349 1.353,-0.239 2.412,0.169c2.251,0.868 2.873,0.918 4.854,0.393c1.026,-0.272 2.028,-0.488 2.227,-0.479c0.199,0.008 0.847,-0.3 1.44,-0.685c0.694,-0.45 1.635,-0.786 2.639,-0.942l1.56,-0.243l0.136,-1.022c0.183,-1.365 0.543,-1.713 1.178,-1.138c0.473,0.428 0.486,0.426 0.486,-0.078c-0,-0.284 0.145,-0.517 0.322,-0.517c0.615,0 1.187,0.95 1.304,2.166c0.084,0.871 0.246,1.28 0.579,1.458c0.254,0.136 0.538,0.454 0.632,0.707c0.192,0.52 1.44,1.953 5.083,5.839c4.611,4.919 4.415,4.645 4.322,6.03c-0.054,0.814 -0.359,1.267 -1.073,1.596c-0.269,0.123 -0.759,0.381 -1.089,0.571c-0.85,0.49 -1.617,0.435 -2.103,-0.152c-1.083,-1.308 -3.426,-2.241 -6.297,-2.505c-2.043,-0.188 -3.162,-0.622 -3.844,-1.488c-0.434,-0.552 -0.481,-0.564 -0.619,-0.15c-0.649,1.952 -2.659,6.245 -3.973,8.487c-0.659,1.123 -1.303,2.238 -1.433,2.478c-0.13,0.241 -0.343,1.375 -0.473,2.52c-0.314,2.759 -0.66,5.175 -0.801,5.588c-0.191,0.561 4.4,7.174 5.623,8.098c0.594,0.449 1.465,1.425 1.937,2.169c0.471,0.744 1.755,2.161 2.851,3.15c2.815,2.538 3.222,2.932 3.62,3.508c0.193,0.28 0.811,1.112 1.372,1.849c0.561,0.738 1.02,1.45 1.02,1.583c-0,0.716 -2.864,1.034 -3.716,0.411c-0.514,-0.376 -0.681,-1.091 -0.348,-1.493c0.282,-0.339 -0.116,-0.691 -1.027,-0.909c-0.358,-0.085 -0.844,-0.43 -1.08,-0.766c-2.497,-3.549 -4.468,-5.443 -8.711,-8.374c-1.121,-0.774 -2.686,-1.963 -3.478,-2.643c-0.792,-0.68 -1.831,-1.528 -2.308,-1.886l-0.868,-0.65l-1.306,2.224c-1.748,2.978 -1.831,3.203 -2.229,6.022c-0.189,1.343 -0.526,2.928 -0.748,3.522c-0.256,0.686 -0.443,2.088 -0.511,3.84l-0.108,2.76l1.122,1.266c1.084,1.222 3.524,3.321 2.757,3.321c-0.186,-0 -1.725,0.161 -2.087,0.091c-0.61,-0.119 -1.972,-0.253 -2.419,-0.655c-1.012,-0.91 -0.36,-0.847 -1.128,-1.383Zm-51.436,-25.42c0.228,-0.429 0.176,-0.414 -0.369,0.1c-0.349,0.33 -0.636,0.694 -0.638,0.809c-0.007,0.308 0.699,-0.329 1.007,-0.909Z"/><path d="M23.386,5.669l-11.339,21.26l-6.378,0l11.339,-21.26l6.378,0Z"/><path d="M36.614,5.669l-11.338,21.26l-6.378,0l11.338,-21.26l6.378,0Z"/><path d="M49.843,5.669l-11.339,21.26l-6.378,0l11.339,-21.26l6.378,0Z"/></svg>