<?xml version="1.0" encoding="UTF-8" standalone="no"?><!DOCTYPE svg PUBLIC "-//W3C//DTD SVG 1.1//EN" "http://www.w3.org/Graphics/SVG/1.1/DTD/svg11.dtd"><svg width="100%" height="100%" viewBox="0 0 137 137" version="1.1" xmlns="http://www.w3.org/2000/svg" xmlns:xlink="http://www.w3.org/1999/xlink" xml:space="preserve" xmlns:serif="http://www.serif.com/" style="fill-rule:evenodd;clip-rule:evenodd;stroke-linejoin:round;stroke-miterlimit:2;"><path id="path1" d="M88.625,109.138c-0.229,-0.16 -0.661,-0.508 -0.834,-0.508c-0.756,0 -1.378,-1.142 -1.378,-2.529c0,-1.295 0.704,-5.647 1.687,-10.42c0.181,-0.882 0.245,-2.027 0.142,-2.545c-0.104,-0.518 0.065,-2.54 0.376,-4.493c0.31,-1.953 0.644,-4.771 0.741,-6.261l0.177,-2.71l-7.743,-0.01c-6.345,-0.009 -8.14,-0.119 -9.944,-0.612c-4.352,-1.19 -7.918,-2.746 -10.755,-4.69l-1.44,-0.988l-5.042,0.786l-1.288,1.095c-0.708,0.602 -2.824,2.102 -4.701,3.332c-2.257,1.48 -4.396,3.268 -6.318,5.284c-4.478,4.696 -4.709,5.065 -5.05,8.088c-0.593,5.266 -0.739,9.453 -0.336,9.701c0.211,0.131 0.384,0.59 0.384,1.019c0,1.044 1.092,2.375 2.683,3.269c0.879,0.494 1.589,1.291 2.191,2.461l0.892,1.729l-0.766,0.291c-1.177,0.448 -3.93,0.068 -4.94,-0.681c-0.499,-0.369 -1.073,-1.173 -1.277,-1.786c-0.273,-0.822 -0.763,-1.304 -1.863,-1.831l-1.492,-0.717l-0.021,-6.435c-0.016,-4.806 -0.171,-7.12 -0.614,-9.144c-0.333,-1.524 -0.501,-3.201 -0.383,-3.833c0.198,-1.053 0.167,-1.1 -0.49,-0.748c-1.439,0.77 -4.481,7.89 -5.496,12.864c-0.425,2.079 -0.574,2.309 -3.036,4.675c-3.086,2.966 -5.004,4.462 -5.739,4.475c-0.926,0.016 -1.347,-1.474 -0.973,-3.442c0.359,-1.896 1.406,-3.322 2.439,-3.322c1.154,0 2.002,-0.661 1.773,-1.382c-0.14,-0.442 0.087,-1.016 0.68,-1.721c2.083,-2.476 2.806,-4.767 3.535,-11.208c0.385,-3.399 0.686,-3.918 3.455,-5.956c3.116,-2.295 5.363,-4.456 6.067,-5.835c0.817,-1.601 1.673,-6.75 1.46,-8.783c-0.15,-1.438 0.542,-7.041 1.079,-8.739c0.228,-0.72 0.173,-0.761 -0.728,-0.544c-3.516,0.846 -8.33,5.47 -10.945,10.512c-0.399,0.77 -7.06,7.952 -9.273,8.877c-1.226,0.506 -1.857,0.91 -1.869,0.208c-0.011,-0.558 0.68,-1.726 -0.451,-0.014c-0.838,1.267 -2.833,1.378 -4.706,3.032c-1.037,0.933 -2.19,1.637 -2.899,1.77c-1.669,0.313 -1.752,-0.02 -0.245,-0.982c0.716,-0.456 1.683,-1.258 2.148,-1.782c0.788,-0.885 0.729,-0.868 -0.846,0.236c-1.835,1.286 -4.486,2.422 -4.963,2.127c-0.461,-0.285 -0.007,-0.781 1.176,-1.282c1.178,-0.499 4.549,-3.477 3.448,-3.047c-0.929,0.364 -5.502,0.575 -6.204,0.287c-0.38,-0.156 0.221,-0.427 1.801,-0.814c2.498,-0.611 4.358,-1.461 6.181,-2.827l1.1,-0.824l-2.529,-0.191c-1.441,-0.109 -2.849,-0.416 -3.275,-0.715c-0.881,-0.616 -0.638,-0.741 1.965,-1.006c4.614,-1.058 9.709,-6.041 13.088,-9.308c7.742,-7.541 11.305,-9.7 16.661,-10.096c1.834,-0.136 2.854,-0.017 4.504,0.521c1.937,0.633 2.247,0.652 3.386,0.211c4.555,-1.767 10.399,-2.374 12.865,-1.338c3.605,1.515 12.736,3.199 17.326,3.195c3.06,-0.003 4.543,-0.481 7.303,-2.353c2.672,-1.814 4.994,-3.064 5.69,-3.064c0.698,0 4.64,-2.037 4.64,-2.397c0,-0.172 -0.137,-0.313 -0.303,-0.313c-0.167,0 -0.281,-0.38 -0.254,-0.846c0.027,-0.466 0.179,-0.847 0.339,-0.847c0.16,0 0.202,-0.23 0.094,-0.51c-0.16,-0.417 0.036,-0.477 1.065,-0.327c0.693,0.101 1.707,0.055 2.254,-0.101c1.077,-0.308 1.6,-1.094 0.728,-1.094c-0.295,0 -0.536,-0.153 -0.536,-0.339c0,-0.186 0.19,-0.341 0.423,-0.344c0.287,-0.004 0.262,-0.107 -0.075,-0.32c-0.802,-0.507 -0.087,-0.846 0.793,-0.375c0.441,0.236 1.088,0.363 1.439,0.283c0.528,-0.12 0.464,-0.224 -0.379,-0.606c-1.713,-0.776 -3.207,-2.363 -2.226,-2.363c0.173,0 0.523,0.208 0.778,0.463c0.255,0.255 0.837,0.578 1.294,0.718c0.827,0.253 0.826,0.249 -0.137,-0.775c-1.318,-1.4 -1.025,-2.01 0.445,-0.926c1.208,0.892 3.821,1.211 4.249,0.52c0.115,-0.187 -0.034,-0.339 -0.332,-0.339c-0.945,0 -3.295,-1.383 -3.467,-2.039c-0.092,-0.355 -0.594,-0.726 -1.143,-0.847c-0.537,-0.118 -1.064,-0.355 -1.171,-0.527c-0.304,-0.492 1.909,-0.337 3.403,0.239c3.178,1.225 4.055,1.296 6.851,0.554c1.448,-0.384 2.862,-0.688 3.143,-0.676c0.28,0.012 1.194,-0.423 2.032,-0.966c0.979,-0.635 2.307,-1.11 3.723,-1.33l2.202,-0.342l0.193,-1.443c0.257,-1.926 0.765,-2.417 1.661,-1.605c0.668,0.604 0.686,0.601 0.686,-0.11c0,-0.401 0.205,-0.73 0.455,-0.73c0.868,0 1.675,1.341 1.84,3.057c0.118,1.229 0.347,1.806 0.816,2.057c0.359,0.192 0.76,0.641 0.892,0.998c0.272,0.733 2.032,2.756 7.173,8.239c6.508,6.942 6.231,6.556 6.1,8.51c-0.077,1.149 -0.507,1.789 -1.514,2.252c-0.38,0.174 -1.072,0.537 -1.538,0.806c-1.199,0.692 -2.281,0.614 -2.966,-0.214c-1.528,-1.847 -4.835,-3.162 -8.887,-3.536c-2.882,-0.265 -4.462,-0.877 -5.424,-2.1c-0.612,-0.779 -0.68,-0.795 -0.874,-0.211c-0.915,2.755 -3.752,8.813 -5.607,11.977c-0.929,1.584 -1.839,3.158 -2.023,3.497c-0.183,0.339 -0.483,1.94 -0.667,3.556c-0.442,3.894 -0.931,7.302 -1.129,7.886c-0.27,0.792 6.209,10.123 7.934,11.427c0.838,0.634 2.068,2.012 2.734,3.061c0.665,1.05 2.476,3.05 4.024,4.446c3.972,3.581 4.546,4.138 5.107,4.949c0.273,0.396 1.145,1.57 1.936,2.611c0.792,1.04 1.44,2.045 1.44,2.232c0,1.012 -4.042,1.46 -5.243,0.582c-0.727,-0.532 -0.962,-1.541 -0.492,-2.108c0.398,-0.479 -0.164,-0.976 -1.449,-1.283c-0.505,-0.12 -1.191,-0.606 -1.524,-1.08c-3.524,-5.009 -6.306,-7.682 -12.294,-11.817c-1.581,-1.093 -3.79,-2.772 -4.908,-3.731c-1.117,-0.959 -2.583,-2.157 -3.257,-2.661l-1.225,-0.917l-1.842,3.138c-2.467,4.202 -2.584,4.519 -3.145,8.498c-0.268,1.896 -0.743,4.132 -1.056,4.971c-0.361,0.967 -0.625,2.946 -0.721,5.419l-0.153,3.894l1.584,1.786c1.529,1.725 4.972,4.687 3.89,4.687c-0.262,0 -2.434,0.228 -2.944,0.129c-0.862,-0.168 -2.783,-0.357 -3.415,-0.925c-1.428,-1.283 -0.508,-1.196 -1.591,-1.951Zm-72.585,-35.873c0.321,-0.604 0.247,-0.584 -0.521,0.142c-0.493,0.465 -0.898,0.979 -0.902,1.142c-0.009,0.434 0.987,-0.465 1.423,-1.284Z"/><path d="M32.703,6.258l-18.596,26.532l-9.785,0.028l18.596,-26.656l9.785,0.096Z"/><path d="M54.33,6.258l-18.596,26.532l-9.785,0.028l18.596,-26.656l9.785,0.096Z"/><path d="M75.958,6.258l-18.596,26.532l-9.785,0.028l18.596,-26.656l9.785,0.096Z"/></svg>