<?xml version="1.0" encoding="UTF-8" standalone="no"?><!DOCTYPE svg PUBLIC "-//W3C//DTD SVG 1.1//EN" "http://www.w3.org/Graphics/SVG/1.1/DTD/svg11.dtd"><svg width="100%" height="100%" viewBox="0 0 137 137" version="1.1" xmlns="http://www.w3.org/2000/svg" xmlns:xlink="http://www.w3.org/1999/xlink" xml:space="preserve" xmlns:serif="http://www.serif.com/" style="fill-rule:evenodd;clip-rule:evenodd;stroke-linejoin:round;stroke-miterlimit:2;"><path id="path1" d="M87.241,114.209c-0.649,-0.957 -0.901,-4.828 -0.35,-5.379c0.145,-0.145 0.752,-0.27 1.348,-0.276c0.851,-0.009 1.087,-0.157 1.095,-0.689c2.156,-1.587 -0.976,-1.897 -2.229,-1.385l-1.203,0.491l-0.078,-1.164c-0.043,-0.64 0.07,-1.441 0.252,-1.781c0.181,-0.339 0.387,-1.043 0.457,-1.566c0.22,-1.643 2.345,-2.518 3.305,-1.361c0.257,0.309 0.691,0.432 1.086,0.307c0.28,-0.089 0.923,-0.06 1.204,-0.372c0.211,-0.232 0.121,0.098 0.186,-0.923c0.042,-0.651 0.186,-1.293 0.321,-1.428c0.134,-0.135 0.245,-1.058 0.245,-2.051c0,-0.994 0.152,-1.806 0.338,-1.806c0.187,0 0.339,-0.497 0.339,-1.103c0,-0.607 0.161,-1.636 0.358,-2.286c0.197,-0.651 0.434,-1.968 0.526,-2.926l0.168,-1.743l-5.097,-5.016l-7.037,0.137c-6.102,0.119 -7.529,0.043 -10.732,-0.568c-2.056,-0.393 -4.645,-1.151 -5.839,-1.71l-2.145,-1.004l-1.002,1.456c-1.682,2.445 -4.826,5.467 -6.882,6.615c-1.074,0.599 -2.712,1.69 -3.641,2.425c-1.576,1.246 -1.69,1.437 -1.69,2.85c0,1.404 0.168,1.695 2.286,3.955c3.109,3.318 5.228,5.383 7.073,6.896c1.445,1.183 1.536,1.354 1.343,2.488c-0.115,0.67 -0.36,2.254 -0.545,3.52c-0.371,2.532 -1.44,4.98 -2.175,4.98c-0.663,0 -2.092,-1.791 -2.561,-3.211c-0.367,-1.112 -0.321,-1.289 0.649,-2.513c1.229,-1.552 1.256,-1.733 0.365,-2.495c-0.372,-0.319 -0.677,-0.779 -0.677,-1.023c0,-0.541 -2.225,-2.71 -3.387,-3.302c-0.466,-0.237 -1.456,-0.917 -2.202,-1.511c-2.127,-1.697 -5.249,-3.265 -5.249,-2.638c0,0.524 1.739,3.095 3.454,5.105c1.077,1.263 1.196,2.278 0.399,3.417c-0.303,0.431 -0.917,1.795 -1.365,3.03c-0.816,2.251 -2.213,4.125 -3.076,4.125c-1.246,0 -2.387,-5.208 -1.238,-5.649c0.786,-0.302 2.165,-1.643 2.165,-2.106c0,-0.217 -0.229,-0.483 -0.509,-0.59c-0.279,-0.107 -0.509,-0.598 -0.51,-1.09c-0.002,-1.239 -0.692,-2.181 -4.758,-6.502c-1.945,-2.068 -3.661,-3.979 -3.812,-4.248c-0.455,-0.81 0.085,-1.811 1.552,-2.873c2.486,-1.801 9.053,-8.398 9.053,-9.094c0,-0.16 -0.767,-0.783 -1.704,-1.385c-1.782,-1.143 -6.237,-5.707 -6.853,-7.021c-0.582,-1.239 -0.886,-0.884 -0.994,1.159c-0.056,1.056 -0.274,1.978 -0.485,2.047c-0.262,0.086 -0.427,-0.925 -0.522,-3.191c-0.076,-1.824 -0.32,-3.622 -0.542,-3.994c-0.346,-0.58 -0.371,-0.507 -0.172,0.508c0.332,1.695 0.313,2.515 -0.065,2.709c-0.181,0.094 -0.436,-0.455 -0.566,-1.218c-0.13,-0.763 -0.553,-1.906 -0.94,-2.54c-0.858,-1.408 -0.915,-0.833 -0.112,1.127c0.405,0.989 0.585,2.303 0.568,4.155c-0.022,2.34 -0.151,2.908 -0.944,4.163c-0.907,1.433 -2.285,2.292 -3.147,1.961c-0.243,-0.093 -1.093,0.126 -1.889,0.487c-1.519,0.689 -2.97,0.874 -2.97,0.379c0,-0.161 0.691,-0.557 1.537,-0.88c3.139,-1.199 4.577,-3.106 4.53,-6.008c-0.023,-1.369 -0.091,-1.594 -0.288,-0.946c-0.634,2.085 -2.926,5.073 -3.896,5.081c-0.198,0.001 -1.574,1.321 -3.058,2.933c-4.047,4.395 -8.402,6.886 -12.041,6.886c-1.966,0 -5.232,-1.819 -6.452,-3.591c-1.845,-2.039 -1.644,-2.396 -1.158,-5.469c0.215,-1.205 0.895,-1.438 1.338,-0.466c0.281,0.618 0.633,1.223 1.194,1.562c1.616,0.592 3.117,0.838 5.465,0.659c1.007,-0.078 2.324,-0.459 2.939,-0.742l1.118,-0.514c-1.656,-0.507 -2.828,-1.393 -4.05,-2.492c-1.007,-0.857 3.877,0.699 5.019,-0.115c1.01,-0.719 2.478,-3.415 3.036,-5.578c0.458,-1.773 0.217,-1.907 -0.685,-0.379c-1.015,1.72 -1.37,1.104 -0.77,-1.333c0.658,-2.669 1.379,-4.121 2.829,-5.697l1.191,-1.294l-0.931,0.23c-1.112,0.274 -1.223,-0.176 -0.202,-0.814c0.742,-0.464 4.223,-2.219 6.389,-3.222c1.666,-0.772 5.568,-1.552 7.793,-1.559c1.078,-0.004 2.169,-0.215 2.573,-0.497c0.385,-0.27 1.905,-0.97 3.377,-1.555c1.472,-0.584 3.493,-1.449 4.491,-1.921c3.446,-1.63 9.228,-1.793 13.427,-0.377c4.182,1.409 9.915,2.713 12.7,2.888c3.358,0.212 5.624,-0.326 7.87,-1.866c2.14,-1.469 5.31,-2.995 8.288,-3.991c2.887,-0.967 3.963,-1.466 3.196,-1.483c-0.254,-0.005 -0.378,-0.223 -0.278,-0.485c0.107,-0.279 -0.078,-0.543 -0.45,-0.64c-0.451,-0.118 -0.578,-0.37 -0.445,-0.88c0.103,-0.393 0.34,-0.715 0.528,-0.715c0.192,0 0.157,-0.221 -0.081,-0.508c-0.36,-0.433 -0.267,-0.508 0.629,-0.508c0.578,0 1.67,-0.247 2.427,-0.55c1.329,-0.532 1.352,-0.567 0.678,-1.04c-0.383,-0.268 -0.599,-0.647 -0.479,-0.841c0.12,-0.195 0.009,-0.488 -0.248,-0.652c-0.284,-0.182 0.145,-0.218 1.097,-0.092c1.844,0.244 2.572,-0.366 0.828,-0.693c-1.281,-0.24 -2.87,-1.352 -2.485,-1.739c0.135,-0.136 0.44,-0.094 0.677,0.093c0.638,0.503 2.295,0.838 2.295,0.463c0,-0.177 -0.305,-0.419 -0.678,-0.537c-0.695,-0.221 -1.55,-1.442 -1.232,-1.759c0.098,-0.098 0.629,0.144 1.18,0.537c1.18,0.839 3.339,0.948 4.306,0.217c0.63,-0.477 0.619,-0.498 -0.267,-0.508c-1.283,-0.015 -3.648,-1.01 -3.648,-1.534c0,-0.239 -0.528,-0.533 -1.173,-0.654c-0.646,-0.121 -1.265,-0.367 -1.375,-0.546c-0.297,-0.48 2.732,-0.391 5.025,0.149c2.1,0.494 3.553,0.257 5.821,-0.947c0.559,-0.297 1.473,-0.627 2.032,-0.734c0.559,-0.107 1.778,-0.875 2.709,-1.708c0.932,-0.833 2.116,-1.604 2.632,-1.714c1.172,-0.25 1.157,-0.224 1.575,-2.821c0.4,-2.479 0.73,-2.975 1.481,-2.224c0.685,0.685 0.801,0.668 1.015,-0.148c0.097,-0.373 0.346,-0.677 0.552,-0.677c0.647,0 1.718,2.145 1.719,3.445c0.001,0.883 0.272,1.539 0.933,2.262c0.512,0.56 1.922,2.194 3.133,3.631c1.211,1.436 3.667,4.152 5.459,6.035c5.777,6.071 6.145,6.569 5.884,7.958c-0.335,1.79 -0.636,2.185 -2.293,3.012c-2.106,1.052 -3.289,0.977 -4.498,-0.286c-0.547,-0.57 -1.68,-1.344 -2.519,-1.719c-1.584,-0.709 -5.811,-1.647 -7.422,-1.647c-1.038,0 -1.18,0.255 -3.865,6.943c-0.822,2.049 -2.466,5.479 -3.652,7.621l-2.157,3.895l-0.107,4.064c-0.059,2.235 -0.273,4.521 -0.476,5.08c-0.71,1.956 -1.803,4.035 -2.544,4.843c-0.412,0.447 -0.99,1.675 -1.286,2.727c-0.295,1.052 -0.838,2.635 -1.207,3.518c-0.703,1.684 -0.644,2.637 0.278,4.463c0.273,0.543 0.534,1.381 0.579,1.863c0.045,0.481 0.19,1.263 0.321,1.738c0.193,0.698 -0.029,1.199 -1.164,2.625c-0.772,0.969 -1.326,1.762 -1.231,1.762c0.095,0 -0.12,0.343 -0.478,0.762c-0.358,0.419 -1.039,1.219 -1.513,1.778c-0.474,0.559 -1.185,1.581 -1.579,2.272c-0.395,0.691 -1.131,1.4 -1.635,1.576c-0.702,0.244 -0.974,0.619 -1.157,1.592c-0.131,0.699 -0.799,2.159 -1.483,3.244c-0.685,1.085 -1.854,2.978 -2.6,4.207c-1.707,2.815 -2.259,3.157 -3.098,1.92Zm10.992,-20.916c-0.104,-0.105 -0.294,0.083 -0.421,0.417c-0.184,0.483 -0.145,0.522 0.19,0.19c0.231,-0.23 0.335,-0.503 0.231,-0.607Zm-63.566,-26.807c-0.399,-0.686 -0.495,-0.467 -0.169,0.385c0.117,0.303 0.283,0.479 0.37,0.392c0.087,-0.087 -0.002,-0.437 -0.201,-0.777Zm-5.829,7.388c-0.029,-0.847 -0.047,-0.838 -0.344,0.191c-0.173,0.596 -0.464,1.176 -0.647,1.29c-0.183,0.113 -0.328,0.387 -0.322,0.609c0.006,0.222 0.311,0.043 0.677,-0.396c0.367,-0.44 0.653,-1.202 0.636,-1.694Zm6.799,-10.292c-0.004,-0.835 -0.085,-0.978 -0.334,-0.593c-0.43,0.666 -0.43,1.694 -0,1.694c0.187,0 0.337,-0.496 0.334,-1.101Zm-2.974,13.26c0.33,-0.448 0.682,-1.347 0.781,-1.999c0.177,-1.168 0.17,-1.163 -0.525,0.339c-0.388,0.838 -1.115,1.973 -1.616,2.522c-0.897,0.984 -0.898,0.991 -0.075,0.474c0.459,-0.288 1.105,-0.889 1.435,-1.336Z"/><path d="M32.703,6.258l-18.596,26.532l-9.785,0.028l18.596,-26.656l9.785,0.096Z"/><path d="M54.33,6.258l-18.596,26.532l-9.785,0.028l18.596,-26.656l9.785,0.096Z"/><path d="M75.958,6.258l-18.596,26.532l-9.785,0.028l18.596,-26.656l9.785,0.096Z"/><path d="M97.585,6.258l-18.596,26.532l-9.785,0.028l18.596,-26.656l9.785,0.096Z"/></svg>