<?xml version="1.0" encoding="UTF-8" standalone="no"?><!DOCTYPE svg PUBLIC "-//W3C//DTD SVG 1.1//EN" "http://www.w3.org/Graphics/SVG/1.1/DTD/svg11.dtd"><svg width="100%" height="100%" viewBox="0 0 97 97" version="1.1" xmlns="http://www.w3.org/2000/svg" xmlns:xlink="http://www.w3.org/1999/xlink" xml:space="preserve" xmlns:serif="http://www.serif.com/" style="fill-rule:evenodd;clip-rule:evenodd;stroke-linejoin:round;stroke-miterlimit:2;"><path id="gallop" d="M60.97,80.256c-0.46,-0.679 -0.638,-3.422 -0.248,-3.812c0.103,-0.103 0.533,-0.191 0.956,-0.196c0.603,-0.006 0.769,-0.111 0.775,-0.488c1.528,-1.124 -0.691,-1.344 -1.579,-0.982l-0.852,0.349l-0.056,-0.825c-0.03,-0.454 0.05,-1.022 0.178,-1.262c0.129,-0.24 0.275,-0.74 0.324,-1.11c0.156,-1.164 1.662,-1.784 2.342,-0.964c0.182,0.219 0.49,0.306 0.77,0.217c0.199,-0.063 0.654,-0.042 0.854,-0.263c0.149,-0.165 0.085,0.069 0.131,-0.654c0.03,-0.461 0.132,-0.917 0.227,-1.012c0.096,-0.096 0.174,-0.75 0.174,-1.454c-0,-0.704 0.108,-1.28 0.24,-1.28c0.132,0 0.24,-0.352 0.24,-0.781c-0,-0.43 0.114,-1.159 0.254,-1.62c0.139,-0.462 0.307,-1.395 0.372,-2.074l0.12,-1.235l-3.613,-3.554l-4.986,0.097c-4.324,0.084 -5.335,0.031 -7.605,-0.403c-1.457,-0.278 -3.291,-0.815 -4.138,-1.211l-1.52,-0.712l-0.71,1.032c-1.192,1.733 -3.42,3.874 -4.877,4.687c-0.76,0.425 -1.921,1.198 -2.58,1.719c-1.117,0.883 -1.197,1.018 -1.197,2.02c-0,0.995 0.119,1.201 1.62,2.802c2.203,2.352 3.704,3.815 5.012,4.887c1.024,0.838 1.089,0.959 0.951,1.763c-0.081,0.475 -0.255,1.597 -0.386,2.494c-0.262,1.794 -1.02,3.529 -1.541,3.529c-0.47,0 -1.483,-1.269 -1.815,-2.275c-0.26,-0.788 -0.227,-0.913 0.46,-1.781c0.871,-1.1 0.89,-1.228 0.259,-1.768c-0.264,-0.226 -0.48,-0.552 -0.48,-0.725c-0,-0.383 -1.577,-1.92 -2.4,-2.34c-0.33,-0.168 -1.032,-0.65 -1.56,-1.071c-1.508,-1.202 -3.72,-2.313 -3.72,-1.869c-0,0.372 1.233,2.194 2.447,3.618c0.764,0.895 0.848,1.614 0.283,2.421c-0.214,0.306 -0.649,1.272 -0.967,2.147c-0.578,1.596 -1.568,2.923 -2.18,2.923c-0.883,0 -1.691,-3.69 -0.877,-4.003c0.557,-0.214 1.534,-1.164 1.534,-1.492c-0,-0.154 -0.162,-0.342 -0.36,-0.418c-0.198,-0.076 -0.361,-0.424 -0.362,-0.772c-0.002,-0.879 -0.49,-1.546 -3.371,-4.608c-1.379,-1.465 -2.595,-2.82 -2.702,-3.01c-0.322,-0.574 0.061,-1.284 1.1,-2.036c1.762,-1.277 6.415,-5.951 6.415,-6.445c-0,-0.113 -0.543,-0.554 -1.208,-0.981c-1.262,-0.81 -4.419,-4.044 -4.856,-4.975c-0.412,-0.878 -0.628,-0.626 -0.704,0.821c-0.04,0.749 -0.194,1.402 -0.344,1.451c-0.185,0.061 -0.303,-0.656 -0.37,-2.261c-0.053,-1.293 -0.226,-2.567 -0.384,-2.831c-0.245,-0.411 -0.262,-0.359 -0.121,0.36c0.235,1.202 0.221,1.783 -0.046,1.92c-0.129,0.066 -0.309,-0.322 -0.402,-0.863c-0.092,-0.541 -0.392,-1.351 -0.665,-1.8c-0.609,-0.998 -0.649,-0.59 -0.08,0.798c0.287,0.701 0.414,1.632 0.402,2.945c-0.015,1.658 -0.106,2.061 -0.669,2.95c-0.642,1.015 -1.619,1.624 -2.229,1.389c-0.173,-0.066 -0.775,0.09 -1.339,0.345c-1.077,0.489 -2.105,0.62 -2.105,0.269c-0,-0.114 0.49,-0.395 1.089,-0.624c2.225,-0.849 3.244,-2.201 3.21,-4.257c-0.015,-0.97 -0.064,-1.129 -0.203,-0.67c-0.45,1.477 -2.074,3.595 -2.762,3.6c-0.14,0.001 -1.115,0.937 -2.166,2.079c-2.868,3.114 -5.955,4.879 -8.533,4.879c-1.393,0 -3.708,-1.288 -4.572,-2.544c-1.308,-1.446 -1.165,-1.698 -0.82,-3.876c0.152,-0.854 0.634,-1.019 0.947,-0.33c0.199,0.438 0.449,0.867 0.847,1.107c1.145,0.419 2.209,0.594 3.872,0.466c0.714,-0.054 1.647,-0.325 2.083,-0.525l0.792,-0.364c-1.173,-0.36 -2.004,-0.987 -2.87,-1.766c-0.713,-0.607 2.748,0.495 3.557,-0.081c0.716,-0.51 1.756,-2.421 2.151,-3.953c0.325,-1.257 0.154,-1.351 -0.485,-0.269c-0.719,1.219 -0.971,0.783 -0.546,-0.945c0.466,-1.891 0.977,-2.92 2.005,-4.037l0.844,-0.917l-0.66,0.163c-0.788,0.195 -0.867,-0.124 -0.143,-0.576c0.526,-0.329 2.992,-1.573 4.527,-2.283c1.181,-0.547 3.946,-1.101 5.522,-1.106c0.764,-0.002 1.538,-0.151 1.824,-0.352c0.273,-0.191 1.35,-0.687 2.393,-1.101c1.043,-0.414 2.475,-1.027 3.182,-1.362c2.442,-1.155 6.539,-1.27 9.515,-0.267c2.963,0.999 7.026,1.923 9,2.047c2.379,0.15 3.985,-0.231 5.576,-1.323c1.517,-1.04 3.764,-2.122 5.873,-2.828c2.046,-0.685 2.809,-1.038 2.265,-1.05c-0.179,-0.004 -0.268,-0.159 -0.196,-0.344c0.075,-0.198 -0.056,-0.385 -0.319,-0.454c-0.32,-0.083 -0.41,-0.262 -0.316,-0.623c0.073,-0.279 0.241,-0.507 0.374,-0.507c0.137,0 0.112,-0.156 -0.057,-0.36c-0.255,-0.307 -0.189,-0.36 0.446,-0.36c0.409,0 1.183,-0.175 1.719,-0.39c0.943,-0.377 0.959,-0.402 0.481,-0.736c-0.272,-0.191 -0.425,-0.459 -0.339,-0.597c0.085,-0.138 0.006,-0.346 -0.176,-0.462c-0.202,-0.129 0.103,-0.154 0.777,-0.065c1.307,0.173 1.823,-0.259 0.587,-0.491c-0.908,-0.17 -2.034,-0.958 -1.761,-1.232c0.096,-0.096 0.312,-0.067 0.48,0.066c0.452,0.356 1.626,0.593 1.626,0.328c-0,-0.126 -0.216,-0.297 -0.48,-0.381c-0.493,-0.156 -1.099,-1.021 -0.873,-1.247c0.069,-0.069 0.445,0.103 0.836,0.381c0.836,0.595 2.366,0.672 3.051,0.154c0.446,-0.338 0.439,-0.353 -0.189,-0.36c-0.91,-0.011 -2.585,-0.715 -2.585,-1.087c-0,-0.169 -0.374,-0.378 -0.832,-0.463c-0.457,-0.086 -0.895,-0.26 -0.974,-0.387c-0.21,-0.341 1.936,-0.277 3.561,0.105c1.488,0.35 2.518,0.183 4.125,-0.671c0.396,-0.21 1.044,-0.444 1.44,-0.52c0.396,-0.076 1.26,-0.62 1.92,-1.21c0.66,-0.59 1.499,-1.137 1.865,-1.215c0.83,-0.177 0.82,-0.159 1.116,-1.999c0.283,-1.757 0.517,-2.108 1.049,-1.576c0.486,0.485 0.568,0.474 0.719,-0.105c0.069,-0.264 0.246,-0.48 0.392,-0.48c0.458,0 1.217,1.521 1.218,2.442c0.001,0.626 0.192,1.091 0.661,1.603c0.363,0.397 1.362,1.554 2.22,2.572c0.858,1.018 2.599,2.943 3.868,4.277c4.094,4.302 4.355,4.655 4.17,5.639c-0.238,1.269 -0.451,1.549 -1.625,2.135c-1.492,0.745 -2.33,0.692 -3.188,-0.203c-0.387,-0.404 -1.19,-0.952 -1.784,-1.218c-1.123,-0.502 -4.118,-1.167 -5.259,-1.167c-0.737,0 -0.837,0.181 -2.74,4.92c-0.582,1.452 -1.747,3.882 -2.588,5.4l-1.528,2.76l-0.076,2.88c-0.041,1.584 -0.193,3.204 -0.337,3.6c-0.503,1.386 -1.278,2.859 -1.803,3.432c-0.292,0.317 -0.702,1.187 -0.911,1.933c-0.209,0.745 -0.594,1.867 -0.855,2.492c-0.498,1.194 -0.457,1.869 0.196,3.163c0.194,0.385 0.379,0.979 0.411,1.32c0.032,0.341 0.134,0.895 0.227,1.232c0.137,0.494 -0.021,0.85 -0.825,1.86c-0.547,0.686 -0.939,1.248 -0.872,1.248c0.068,0 -0.085,0.243 -0.339,0.54c-0.254,0.297 -0.736,0.864 -1.072,1.26c-0.336,0.396 -0.839,1.121 -1.119,1.61c-0.279,0.49 -0.801,0.992 -1.159,1.117c-0.497,0.173 -0.69,0.439 -0.819,1.128c-0.093,0.496 -0.566,1.53 -1.051,2.299c-0.485,0.769 -1.314,2.111 -1.842,2.981c-1.21,1.995 -1.601,2.237 -2.196,1.361Zm7.79,-14.822c-0.074,-0.074 -0.209,0.059 -0.299,0.296c-0.13,0.342 -0.102,0.369 0.135,0.134c0.164,-0.163 0.237,-0.356 0.164,-0.43Zm-45.045,-18.996c-0.283,-0.486 -0.351,-0.331 -0.119,0.273c0.082,0.214 0.2,0.339 0.262,0.278c0.061,-0.062 -0.002,-0.31 -0.143,-0.551Zm-4.131,5.236c-0.02,-0.601 -0.033,-0.594 -0.244,0.134c-0.122,0.423 -0.328,0.834 -0.458,0.915c-0.13,0.08 -0.233,0.274 -0.228,0.431c0.004,0.158 0.22,0.031 0.48,-0.28c0.259,-0.312 0.462,-0.852 0.45,-1.2Zm4.818,-7.294c-0.003,-0.592 -0.06,-0.693 -0.236,-0.42c-0.305,0.472 -0.305,1.2 -0,1.2c0.132,0 0.238,-0.351 0.236,-0.78Zm-2.107,9.396c0.234,-0.317 0.483,-0.954 0.553,-1.416c0.126,-0.828 0.121,-0.824 -0.372,0.24c-0.274,0.594 -0.79,1.398 -1.145,1.788c-0.636,0.696 -0.636,0.701 -0.053,0.336c0.325,-0.205 0.783,-0.631 1.017,-0.948Z"/><path d="M23.386,5.669l-11.339,21.26l-6.378,0l11.339,-21.26l6.378,0Z"/><path d="M36.614,5.669l-11.338,21.26l-6.378,0l11.338,-21.26l6.378,0Z"/><path d="M49.843,5.669l-11.339,21.26l-6.378,0l11.339,-21.26l6.378,0Z"/><path d="M63.071,5.669l-11.339,21.26l-6.378,0l11.339,-21.26l6.378,0Z"/></svg>