<?xml version="1.0" encoding="UTF-8" standalone="no"?><!DOCTYPE svg PUBLIC "-//W3C//DTD SVG 1.1//EN" "http://www.w3.org/Graphics/SVG/1.1/DTD/svg11.dtd"><svg width="100%" height="100%" viewBox="0 0 137 137" version="1.1" xmlns="http://www.w3.org/2000/svg" xmlns:xlink="http://www.w3.org/1999/xlink" xml:space="preserve" xmlns:serif="http://www.serif.com/" style="fill-rule:evenodd;clip-rule:evenodd;stroke-linejoin:round;stroke-miterlimit:2;"><path id="path1" d="M17.567,112.01c-1.101,-0.497 -1.111,-0.522 -0.884,-2.23c0.187,-1.411 0.087,-2.031 -0.543,-3.376l-0.772,-1.648l1.65,-4.425c0.554,-2.906 1.171,-2.586 1.712,-5.694c0.087,-0.497 -0.072,-0.593 -1.132,-0.593c-1.202,0 -2.268,1.401 -1.331,-1.938c0.151,-0.538 -0.194,-1.421 -0.447,-3.042c-0.412,-2.638 -0.402,-3.101 0.1,-4.414c0.308,-0.807 0.56,-2.345 0.56,-3.42c0,-1.074 0.208,-2.364 0.464,-2.867c0.255,-0.503 0.566,-2.058 0.692,-3.455c0.342,-3.779 0.354,-3.866 0.598,-4.244c0.125,-0.192 0.558,-2.538 0.963,-5.212c0.795,-5.247 1.802,-8.249 3.685,-10.986c1.442,-2.096 2.46,-2.686 5.873,-3.402c1.538,-0.322 4.244,-1.023 6.014,-1.557c3.961,-1.196 8.079,-2.035 9.942,-2.025c0.772,0.004 2.068,0.309 2.88,0.678c0.217,0.098 5.159,1.658 5.388,1.705c1.068,0.222 2.537,0.683 3.264,1.023c0.351,0.164 6.727,1.3 9.826,0.657c1.026,-0.213 3.355,-1.145 5.174,-2.072c2.799,-1.424 3.822,-1.756 6.642,-2.15c3.3,-0.461 4.638,-1.067 4.638,-2.101c0,-0.688 5.027,-5.553 6.138,-5.941c0.536,-0.187 0.974,-0.463 0.974,-0.615c0,-0.296 4.937,-4.472 6.605,-5.587c0.559,-0.373 1.778,-1.037 2.709,-1.476c0.932,-0.439 1.958,-0.933 2.282,-1.099c0.323,-0.166 0.933,-0.304 1.355,-0.307c1.75,-0.01 2.203,-0.371 3.007,-2.395c0.835,-2.103 1.742,-2.648 2.169,-1.302c0.213,0.67 0.243,0.673 0.675,0.084c0.422,-0.574 0.48,-0.547 0.85,0.4c0.305,0.779 0.304,1.39 -0.002,2.613c-0.34,1.353 -0.319,1.712 0.136,2.361c0.294,0.421 0.536,0.953 0.536,1.183c0,0.229 0.381,0.798 0.846,1.264c0.466,0.465 0.849,1.12 0.851,1.455c0.004,0.529 1.45,2.232 7.499,8.831c1.202,1.311 1.308,1.572 1.102,2.71c-0.125,0.693 -0.294,1.376 -0.376,1.52c-0.212,0.371 -3.377,1.941 -3.913,1.941c-0.247,0 -1.001,-0.521 -1.675,-1.157c-0.674,-0.635 -1.927,-1.466 -2.783,-1.845c-1.389,-0.614 -5.527,-1.401 -7.367,-1.401c-1.298,0 -2.815,2.036 -4.163,5.588c-1.953,5.144 -2.959,7.317 -4.079,8.805c-1.953,2.595 -2.225,3.217 -2.407,5.513c-0.291,3.662 -1.08,6.731 -2.197,8.546c-0.572,0.93 -1.174,1.691 -1.338,1.691c-0.953,0 -1.812,4.892 -2.366,13.48c-0.237,3.676 -0.488,5.419 -0.865,5.994c-0.368,0.561 -0.59,2.009 -0.723,4.713c-0.228,4.622 0.264,6.434 2.134,7.86c1.156,0.882 2.515,2.757 2.515,3.47c0,0.248 -0.819,0.383 -2.319,0.383c-2.8,0 -3.529,-0.539 -3.229,-2.388c0.166,-1.019 0.011,-1.375 -1.185,-2.734l-1.375,-1.563l0.305,-2.838c0.334,-3.098 0.205,-8.148 -0.262,-10.29l-0.295,-1.355l-0.246,1.016c-0.29,1.193 -0.631,1.955 -1.573,3.511c-0.537,0.888 -0.77,2.163 -1.052,5.758c-0.389,4.964 -0.335,5.286 1.256,7.473c0.465,0.639 0.792,1.325 0.726,1.524c-0.065,0.199 -1.097,0.408 -2.292,0.465c-1.891,0.09 -2.251,0.008 -2.768,-0.63c-0.768,-0.949 -0.749,-1.539 0.084,-2.598c0.815,-1.036 0.871,-2.221 0.141,-2.951c-0.489,-0.489 -0.474,-0.885 0.17,-4.512c0.388,-2.187 0.71,-5.347 0.716,-7.024c0.006,-1.676 0.229,-4.648 0.497,-6.604c0.268,-1.956 0.491,-4.699 0.497,-6.096l0.011,-2.54l-7.197,-0.013c-6.348,-0.012 -7.516,-0.101 -9.906,-0.759c-3.568,-0.982 -8.217,-3.316 -11.262,-5.654c-1.35,-1.036 -2.455,-1.747 -2.455,-1.58c0,0.168 -1.252,1.566 -2.783,3.106c-1.689,1.702 -3.366,3.812 -4.268,5.375c-0.817,1.415 -1.797,3.106 -2.179,3.758c-2.287,3.905 -2.963,5.724 -2.984,8.034c-0.011,1.263 -0.146,3.439 -0.3,4.836c-0.171,1.556 -0.135,3.852 0.092,5.927c0.414,3.789 0.844,4.672 3.471,7.118c2.026,1.886 1.937,2.603 -0.367,2.954c-0.929,0.141 -2.254,0.169 -2.943,0.061l-1.254,-0.196l-0.101,-1.907c-0.091,-1.718 -0.184,-1.925 -0.948,-2.103c-0.823,-0.192 -0.857,-0.32 -1.235,-4.586c-0.412,-4.649 -1.12,-9.366 -2.092,-13.945l-0.591,-2.782l-1.645,1.597c-1.066,1.035 -2.06,2.49 -2.825,4.136c-0.649,1.397 -1.687,3.621 -2.306,4.942c-2.17,4.625 -3.243,7.98 -3.023,9.452c0.198,1.322 1.156,2.879 1.771,2.879c0.168,0 0.657,0.623 1.084,1.385c0.557,0.989 0.674,1.488 0.413,1.749c-0.595,0.596 -3.819,0.66 -5.059,0.1Zm9.256,-34.28c0.115,-0.527 0.348,-1.264 0.518,-1.636c0.438,-0.958 0.33,-3.356 -0.265,-5.927c-0.281,-1.211 -0.713,-3.345 -0.96,-4.742l-0.451,-2.54l0.157,3.387c0.086,1.863 0.251,3.907 0.366,4.542c0.181,0.999 0.13,1.125 -0.375,0.931c-0.535,-0.205 -0.565,-0.005 -0.348,2.307c0.246,2.63 0.047,4.243 -0.525,4.243c-0.182,0 -0.332,-0.482 -0.332,-1.072c-0,-1.813 -0.233,-0.923 -0.459,1.75l-0.214,2.54l1.339,-1.412c0.737,-0.777 1.434,-1.844 1.549,-2.371Z"/></svg>