<?xml version="1.0" encoding="UTF-8" standalone="no"?><!DOCTYPE svg PUBLIC "-//W3C//DTD SVG 1.1//EN" "http://www.w3.org/Graphics/SVG/1.1/DTD/svg11.dtd"><svg width="100%" height="100%" viewBox="0 0 137 137" version="1.1" xmlns="http://www.w3.org/2000/svg" xmlns:xlink="http://www.w3.org/1999/xlink" xml:space="preserve" xmlns:serif="http://www.serif.com/" style="fill-rule:evenodd;clip-rule:evenodd;stroke-linejoin:round;stroke-miterlimit:2;"><path id="path1" d="M24.999,95.892c0.021,-0.504 0.707,-3.509 0.966,-4.321c0.262,-0.825 0.751,-2.795 1.086,-4.379l0.608,-2.878l2.786,-2.71c1.627,-1.583 3.006,-3.254 3.316,-4.021c1.177,-3.551 -0.298,-6.814 -0.838,-10.315c-0.049,-2.18 -0.355,-4.229 0.162,-6.383c0.308,-1.225 0.481,-2.305 0.385,-2.401c-0.265,-0.265 -2.439,1.493 -3.367,2.724c-1.276,1.693 -2.719,4.585 -3.586,7.187c-0.434,1.304 -1.295,3.679 -2.38,4.936c-1.859,2.156 -0.596,2.526 -4.024,4.927l-0.754,0.528c0,-0 -1.935,5.515 -2.711,4.465c-1.261,-1.706 -1.447,-1.841 -1.751,-1.27c-0.554,1.043 -1.706,2.194 -2.725,2.724c-1.589,0.826 -1.684,0.361 -0.242,-1.185c1.815,-1.947 1.759,-2.558 -0.067,-0.732c-1.374,1.373 -2.499,2.034 -3.465,2.034c-0.248,-0 0.458,-0.93 1.569,-2.065c1.112,-1.136 1.944,-2.142 1.85,-2.236c-0.094,-0.094 -1.096,0.15 -2.226,0.541c-2.18,0.754 -4.085,0.931 -4.085,0.379c0,-0.182 0.419,-0.425 0.931,-0.54c1.757,-0.391 3.109,-1.181 4.898,-2.861l1.791,-1.683l-2.202,0.2c-1.427,0.129 -2.558,0.05 -3.217,-0.224c-0.869,-0.363 -0.918,-0.443 -0.339,-0.559c4.101,-0.817 7.367,-4.102 12.355,-12.423c2.03,-3.388 5.521,-7.286 7.632,-8.523c2.816,-1.651 5.174,-2.252 8.109,-2.067c1.874,0.118 2.96,0.033 3.566,-0.281c0.83,-0.429 1.595,-0.662 7.456,-2.27c3.345,-0.917 6.752,-0.906 8.907,0.028c3.353,1.455 9.292,2.644 14.836,2.972c4.397,0.259 5.633,-0.096 9.431,-2.712c1.475,-1.016 3.644,-2.178 4.821,-2.582c2.758,-0.948 5.417,-2.481 4.595,-2.649c-0.598,-0.122 -0.809,-1.097 -0.339,-1.567c0.14,-0.14 0.254,-0.427 0.254,-0.637c0,-0.233 0.752,-0.407 1.919,-0.442c2.211,-0.068 3.039,-0.4 2.189,-0.876c-0.304,-0.17 -0.552,-0.687 -0.552,-1.15c0,-0.728 0.089,-0.795 0.655,-0.492c0.361,0.193 1.085,0.34 1.609,0.327c0.907,-0.023 0.887,-0.054 -0.404,-0.629c-1.35,-0.601 -2.447,-1.582 -2.128,-1.901c0.092,-0.092 0.609,0.063 1.149,0.344c1.406,0.733 1.721,0.636 0.872,-0.267c-0.661,-0.704 -0.985,-1.587 -0.582,-1.587c0.085,-0 0.715,0.381 1.402,0.847c1.263,0.857 2.64,1.074 3.472,0.547c0.334,-0.212 0.171,-0.388 -0.608,-0.66c-1.292,-0.45 -3.177,-1.752 -2.916,-2.013c0.104,-0.104 -0.382,-0.45 -1.081,-0.769c-1.02,-0.466 -1.156,-0.628 -0.69,-0.822c0.549,-0.228 3.772,0.625 4.5,1.191c0.788,0.613 2.887,0.715 4.467,0.217c0.896,-0.283 2.211,-0.612 2.922,-0.731c0.711,-0.12 1.778,-0.509 2.371,-0.865c2.381,-1.431 3.844,-2.115 4.965,-2.322c0.998,-0.184 1.256,-0.432 1.699,-1.63c0.712,-1.929 0.961,-2.09 1.711,-1.114c0.505,0.657 0.648,0.716 0.654,0.269c0.012,-0.862 0.679,-1.102 1.31,-0.471c0.373,0.372 0.569,1.166 0.587,2.368c0.019,1.314 0.227,2.063 0.762,2.743c0.405,0.515 0.736,1.211 0.736,1.547c0,0.337 0.149,0.704 0.332,0.817c0.182,0.113 1.792,2.37 3.576,5.015c1.785,2.646 3.932,5.781 4.772,6.967c2.066,2.917 2.212,3.389 1.533,4.929c-0.424,0.962 -0.897,1.402 -1.917,1.785c-2.814,1.056 -3.104,1.01 -4.666,-0.735c-1.713,-1.914 -3.843,-3.06 -7.644,-4.11c-1.555,-0.429 -3.016,-0.937 -3.247,-1.129c-0.476,-0.395 -0.668,-0.083 -2.07,3.37c-1.597,3.929 -4.521,9.853 -5.353,10.841c-0.686,0.815 -0.848,1.479 -1.049,4.291c-0.203,2.851 -0.785,6.07 -1.38,7.633c-0.29,0.762 2.298,3.154 4.869,4.5c3.151,1.65 4.308,2.812 4.95,4.974c0.424,1.428 0.444,2.133 0.12,4.131c-0.215,1.325 -0.524,2.498 -0.688,2.607c-0.163,0.11 -0.426,1.812 -0.584,3.783c-0.304,3.802 -0.45,4.317 -1.227,4.317c-0.268,-0 -0.488,0.168 -0.488,0.375c0,0.206 -0.523,0.896 -0.779,1.046c-0.783,0.46 -0.465,0.724 -1.375,1.382c-0.903,0.652 -0.392,0.92 -1.505,2.044c-0.523,0.501 -1.136,0.91 -1.363,0.91c-1.139,-0 -1.468,-4.18 -0.429,-5.463c0.615,-0.76 0.589,-0.387 1.416,-0.271c1.237,0.174 1.527,-0.932 2.417,-1.749c0.583,-0.536 1.188,-5.13 1.313,-5.491c0.374,-1.085 -0.116,-2.001 -0.36,-3.029c-0.794,-3.239 -0.691,-3.101 -3.06,-4.117c-2.774,-1.189 -10.969,-3.585 -12.269,-3.587c-0.373,-0 -0.839,0.582 -1.289,1.608c-0.928,2.121 -1.121,2.552 -2.359,5.27c-0.577,1.269 -1.444,3.476 -2.033,4.861c-2.232,5.243 -2.437,3.9 -3.313,6.274c-0.815,2.21 -1.949,6.139 -1.114,7.267c0.222,0.299 0.318,0.542 0.328,0.749c0.015,0.009 0.029,0.018 0.042,0.029c0.552,0.429 2.701,1.741 2.701,2.458c0,0.662 -0.409,0.827 -2.741,1.107c-1.42,0.17 -2.006,0.094 -2.609,-0.338c-0.618,-0.443 -0.697,-0.657 -0.382,-1.036c0.204,-0.246 -0.43,-0.905 -0.328,-0.988c-0.005,-0.002 -0.01,-0.005 -0.016,-0.008c-0.661,-0.301 -1.036,-0.858 -1.036,-1.684c0,-1.028 1.932,-6.647 2.781,-9.469c0.453,-1.503 0.158,-1.57 0.705,-4.09c0.222,-1.025 0.334,-2.077 0.502,-2.297c0.498,-0.649 2.355,-6.694 2.608,-8.487c0.128,-0.909 0.313,-1.861 0.411,-2.117c0.147,-0.382 -0.858,-0.464 -5.7,-0.464c-8.22,-0.001 -11.881,-0.748 -17.82,-3.639l-3.136,-1.526l-0.744,0.974c-0.41,0.535 -1.735,1.888 -2.946,3.005c-1.21,1.118 -3.407,3.188 -4.883,4.6l-2.682,2.568l0.502,1.712c0.194,0.664 0.507,1.356 0.915,2.193c0.067,0.138 1.731,1.811 3.53,3.898l3.271,3.794l-0.54,3.149c-0.297,1.732 -0.686,3.202 -0.863,3.266c-0.191,0.07 -0.166,0.308 0.061,0.581c0.297,0.358 0.14,0.891 -0.688,2.338c-0.59,1.031 -1.204,1.875 -1.364,1.875c-0.16,-0 -0.579,-0.419 -0.932,-0.932l-0.001,-0c-1.191,-1.729 -1.572,-3.073 -1.141,-4.02c0.308,-0.677 1.524,-1.508 1.74,-1.582c0.528,-0.138 0.674,-0.464 0.674,-1.505c0,-2.291 -2.967,-5.956 -6.161,-7.608c-0.803,-0.416 -1.839,-1.104 -2.303,-1.53c-0.464,-0.425 -0.951,-0.773 -1.083,-0.773c-0.507,-0 -1.921,-2.256 -2.123,-3.387c-0.19,-1.069 0.013,-1.5 2.05,-4.365c2.241,-3.151 3.231,-5.457 2.343,-5.457c-0.238,-0 -0.87,0.435 -1.404,0.966c-1.075,1.068 -4.554,3.759 -6.867,5.311c-0.821,0.551 -2.51,1.947 -3.752,3.102c-1.821,1.694 -2.547,2.696 -3.741,5.167l-2.363,3.589l0.002,-0c0,0.043 -0.454,1.05 -1.01,2.238c-0.791,1.688 -1.031,2.715 -1.101,4.701c-0.079,2.237 0.001,2.638 0.672,3.361c0.572,0.615 0.498,0.697 0.67,1.032c0.095,0.183 0.344,0.405 0.477,0.445c0.764,0.23 1.007,0.216 1.758,1.301c1.04,1.502 0.977,1.692 -0.754,2.27c-1.401,0.469 -1.529,0.462 -3.337,-0.178c-1.037,-0.367 -1.966,-0.812 -1.652,-1.353c0.786,-1.351 -0.116,-1.369 0.045,-2.374c0.194,-0.742 -0.598,-2.748 -1.358,-3.039c-0.572,-0.22 -0.67,-1.528 -0.18,-2.413c0.691,-1.249 2.012,-4.357 2.23,-5.249c0.001,-0.006 0.003,-0.011 0.004,-0.017Zm-4.734,-20.404l0.175,-1.335l-0.848,1.524c-1.071,1.926 -1.162,2.806 -0.19,1.833c0.378,-0.378 0.767,-1.288 0.863,-2.022Zm8.152,19.658c-0.087,-0.02 -0.175,-0.036 -0.263,-0.048c0.091,0.016 0.179,0.032 0.263,0.048Z"/><path d="M32.703,6.258l-18.596,26.532l-9.785,0.028l18.596,-26.656l9.785,0.096Z"/><path d="M54.33,6.258l-18.596,26.532l-9.785,0.028l18.596,-26.656l9.785,0.096Z"/></svg>