<?xml version="1.0" encoding="UTF-8" standalone="no"?><!DOCTYPE svg PUBLIC "-//W3C//DTD SVG 1.1//EN" "http://www.w3.org/Graphics/SVG/1.1/DTD/svg11.dtd"><svg width="100%" height="100%" viewBox="0 0 97 97" version="1.1" xmlns="http://www.w3.org/2000/svg" xmlns:xlink="http://www.w3.org/1999/xlink" xml:space="preserve" xmlns:serif="http://www.serif.com/" style="fill-rule:evenodd;clip-rule:evenodd;stroke-linejoin:round;stroke-miterlimit:2;"><path id="trot" d="M17.695,67.059c0.015,-0.356 0.501,-2.486 0.684,-3.062c0.186,-0.584 0.533,-1.98 0.77,-3.102l0.431,-2.04l1.974,-1.92c1.153,-1.122 2.13,-2.307 2.35,-2.85c0.834,-2.516 -0.211,-4.829 -0.594,-7.31c-0.034,-1.544 -0.251,-2.996 0.115,-4.523c0.218,-0.867 0.341,-1.633 0.273,-1.701c-0.188,-0.188 -1.728,1.058 -2.386,1.931c-0.905,1.199 -1.927,3.249 -2.541,5.093c-0.308,0.924 -0.918,2.606 -1.687,3.497c-1.317,1.528 -0.422,1.79 -2.852,3.492l-0.533,0.374c-0,-0 -1.372,3.908 -1.922,3.164c-0.893,-1.209 -1.025,-1.305 -1.24,-0.9c-0.393,0.738 -1.209,1.554 -1.932,1.93c-1.125,0.586 -1.193,0.256 -0.171,-0.84c1.286,-1.379 1.246,-1.813 -0.048,-0.519c-0.973,0.973 -1.77,1.442 -2.455,1.442c-0.176,-0 0.325,-0.659 1.112,-1.464c0.788,-0.804 1.378,-1.517 1.311,-1.584c-0.066,-0.066 -0.776,0.106 -1.578,0.383c-1.544,0.535 -2.895,0.66 -2.895,0.269c0,-0.129 0.297,-0.301 0.66,-0.382c1.245,-0.278 2.204,-0.838 3.471,-2.028l1.269,-1.193l-1.56,0.142c-1.011,0.091 -1.813,0.036 -2.28,-0.159c-0.616,-0.257 -0.65,-0.314 -0.24,-0.396c2.906,-0.579 5.221,-2.907 8.755,-8.803c1.439,-2.401 3.913,-5.163 5.408,-6.04c1.996,-1.169 3.667,-1.595 5.747,-1.464c1.328,0.083 2.097,0.023 2.526,-0.199c0.589,-0.305 1.131,-0.47 5.284,-1.609c2.37,-0.65 4.785,-0.642 6.312,0.02c2.376,1.03 6.585,1.873 10.513,2.105c3.116,0.185 3.992,-0.067 6.683,-1.921c1.045,-0.72 2.583,-1.543 3.416,-1.83c1.955,-0.672 3.839,-1.758 3.256,-1.877c-0.423,-0.086 -0.573,-0.777 -0.24,-1.11c0.099,-0.099 0.18,-0.303 0.18,-0.452c0,-0.165 0.533,-0.288 1.36,-0.313c1.567,-0.048 2.154,-0.283 1.551,-0.621c-0.215,-0.12 -0.391,-0.487 -0.391,-0.815c0,-0.515 0.064,-0.562 0.465,-0.348c0.255,0.137 0.768,0.241 1.14,0.232c0.642,-0.017 0.628,-0.038 -0.287,-0.446c-0.956,-0.426 -1.734,-1.121 -1.507,-1.347c0.065,-0.066 0.431,0.044 0.814,0.244c0.996,0.519 1.219,0.451 0.617,-0.19c-0.468,-0.498 -0.698,-1.124 -0.412,-1.124c0.06,-0 0.507,0.27 0.993,0.6c0.896,0.607 1.871,0.761 2.461,0.387c0.236,-0.15 0.121,-0.275 -0.431,-0.467c-0.916,-0.319 -2.251,-1.242 -2.066,-1.427c0.074,-0.074 -0.271,-0.319 -0.766,-0.545c-0.723,-0.33 -0.819,-0.445 -0.489,-0.582c0.389,-0.162 2.673,0.443 3.188,0.844c0.559,0.435 2.046,0.507 3.166,0.154c0.635,-0.201 1.567,-0.434 2.071,-0.518c0.504,-0.085 1.26,-0.361 1.68,-0.613c1.687,-1.015 2.724,-1.499 3.518,-1.646c0.708,-0.13 0.89,-0.306 1.204,-1.155c0.505,-1.367 0.681,-1.481 1.213,-0.789c0.357,0.465 0.459,0.507 0.463,0.191c0.008,-0.611 0.481,-0.782 0.929,-0.334c0.263,0.264 0.403,0.826 0.415,1.678c0.014,0.931 0.161,1.462 0.54,1.944c0.287,0.364 0.521,0.857 0.521,1.096c0,0.238 0.106,0.499 0.236,0.579c0.129,0.08 1.27,1.679 2.534,3.554c1.265,1.875 2.787,4.096 3.382,4.937c1.463,2.067 1.567,2.401 1.086,3.492c-0.301,0.682 -0.636,0.994 -1.358,1.265c-1.994,0.748 -2.2,0.716 -3.307,-0.521c-1.214,-1.356 -2.723,-2.168 -5.417,-2.912c-1.102,-0.304 -2.137,-0.664 -2.301,-0.8c-0.337,-0.28 -0.473,-0.059 -1.467,2.388c-1.131,2.784 -3.203,6.982 -3.793,7.682c-0.486,0.578 -0.601,1.048 -0.743,3.041c-0.144,2.02 -0.556,4.301 -0.978,5.409c-0.205,0.54 1.628,2.235 3.45,3.189c2.233,1.169 3.053,1.992 3.508,3.525c0.3,1.011 0.315,1.511 0.085,2.927c-0.152,0.938 -0.372,1.77 -0.487,1.847c-0.116,0.078 -0.302,1.284 -0.414,2.681c-0.216,2.694 -0.319,3.059 -0.87,3.059c-0.19,-0 -0.345,0.119 -0.345,0.265c-0,0.146 -0.371,0.636 -0.552,0.742c-0.556,0.326 -0.33,0.513 -0.975,0.979c-0.64,0.462 -0.278,0.652 -1.067,1.449c-0.37,0.354 -0.805,0.645 -0.966,0.645c-0.807,-0 -1.039,-2.963 -0.303,-3.872c0.436,-0.538 0.417,-0.274 1.003,-0.192c0.876,0.124 1.082,-0.661 1.713,-1.239c0.413,-0.38 0.842,-3.635 0.93,-3.891c0.265,-0.769 -0.082,-1.418 -0.255,-2.146c-0.562,-2.296 -0.489,-2.198 -2.168,-2.918c-1.966,-0.843 -7.773,-2.54 -8.694,-2.542c-0.265,-0 -0.595,0.412 -0.914,1.14c-0.658,1.503 -0.794,1.808 -1.671,3.734c-0.41,0.899 -1.024,2.463 -1.441,3.445c-1.582,3.715 -1.727,2.763 -2.348,4.446c-0.577,1.566 -1.381,4.35 -0.789,5.149c0.157,0.212 0.225,0.384 0.232,0.531c0.011,0.006 0.021,0.013 0.03,0.02c0.391,0.304 1.914,1.234 1.914,1.742c0,0.469 -0.29,0.586 -1.942,0.785c-1.007,0.12 -1.422,0.067 -1.849,-0.24c-0.438,-0.314 -0.494,-0.466 -0.271,-0.734c0.145,-0.174 -0.304,-0.641 -0.232,-0.7c-0.004,-0.002 -0.008,-0.004 -0.012,-0.005c-0.468,-0.214 -0.733,-0.609 -0.733,-1.194c-0,-0.728 1.368,-4.71 1.97,-6.71c0.321,-1.065 0.112,-1.112 0.499,-2.898c0.158,-0.727 0.237,-1.472 0.356,-1.628c0.353,-0.46 1.669,-4.744 1.848,-6.014c0.091,-0.644 0.222,-1.319 0.291,-1.5c0.105,-0.271 -0.607,-0.329 -4.039,-0.329c-5.824,-0.001 -8.419,-0.53 -12.627,-2.579l-2.222,-1.081l-0.528,0.69c-0.29,0.379 -1.229,1.338 -2.087,2.13c-0.858,0.792 -2.415,2.258 -3.46,3.259l-1.901,1.82l0.355,1.213c0.138,0.471 0.36,0.961 0.649,1.554c0.048,0.098 1.227,1.283 2.502,2.762l2.318,2.689l-0.383,2.231c-0.211,1.227 -0.486,2.269 -0.612,2.315c-0.135,0.049 -0.117,0.218 0.043,0.411c0.211,0.254 0.1,0.631 -0.487,1.657c-0.418,0.731 -0.853,1.329 -0.966,1.329c-0.114,-0 -0.411,-0.297 -0.661,-0.66l-0.001,-0c-0.844,-1.226 -1.114,-2.179 -0.808,-2.85c0.218,-0.479 1.079,-1.068 1.233,-1.121c0.374,-0.097 0.477,-0.328 0.477,-1.066c0,-1.624 -2.103,-4.22 -4.366,-5.391c-0.568,-0.295 -1.303,-0.782 -1.631,-1.084c-0.329,-0.302 -0.675,-0.548 -0.768,-0.548c-0.36,-0 -1.361,-1.599 -1.504,-2.4c-0.135,-0.757 0.009,-1.063 1.452,-3.093c1.589,-2.234 2.29,-3.867 1.66,-3.867c-0.168,-0 -0.616,0.308 -0.994,0.684c-0.762,0.757 -3.228,2.664 -4.867,3.764c-0.582,0.39 -1.778,1.379 -2.659,2.198c-1.29,1.2 -1.804,1.91 -2.65,3.661l-1.675,2.543l0.002,0.001c0,0.03 -0.322,0.744 -0.716,1.585c-0.56,1.197 -0.731,1.924 -0.78,3.332c-0.056,1.585 0.001,1.869 0.476,2.381c0.406,0.437 0.353,0.494 0.475,0.732c0.067,0.129 0.244,0.287 0.338,0.315c0.541,0.163 0.713,0.153 1.246,0.922c0.736,1.064 0.692,1.199 -0.535,1.609c-0.992,0.332 -1.084,0.327 -2.364,-0.127c-0.735,-0.26 -1.394,-0.575 -1.171,-0.958c0.557,-0.958 -0.082,-0.971 0.032,-1.683c0.138,-0.525 -0.424,-1.947 -0.962,-2.153c-0.406,-0.156 -0.475,-1.083 -0.128,-1.71c0.49,-0.885 1.425,-3.087 1.58,-3.72c0.001,-0.004 0.002,-0.008 0.003,-0.012Zm-3.355,-14.459l0.124,-0.945l-0.6,1.08c-0.759,1.364 -0.824,1.988 -0.135,1.299c0.268,-0.269 0.543,-0.914 0.611,-1.434Zm5.777,13.931c-0.062,-0.014 -0.124,-0.026 -0.186,-0.034c0.065,0.011 0.127,0.023 0.186,0.034Z"/><path d="M23.386,5.669l-11.339,21.26l-6.378,0l11.339,-21.26l6.378,0Z"/><path d="M36.614,5.669l-11.338,21.26l-6.378,0l11.338,-21.26l6.378,0Z"/></svg>