<?xml version="1.0" encoding="UTF-8" standalone="no"?><!DOCTYPE svg PUBLIC "-//W3C//DTD SVG 1.1//EN" "http://www.w3.org/Graphics/SVG/1.1/DTD/svg11.dtd"><svg width="100%" height="100%" viewBox="0 0 97 97" version="1.1" xmlns="http://www.w3.org/2000/svg" xmlns:xlink="http://www.w3.org/1999/xlink" xml:space="preserve" xmlns:serif="http://www.serif.com/" style="fill-rule:evenodd;clip-rule:evenodd;stroke-linejoin:round;stroke-miterlimit:2;"><path id="walk" d="M12.555,78.572c-0.78,-0.352 -0.787,-0.37 -0.627,-1.58c0.133,-1 0.062,-1.439 -0.384,-2.393l-0.547,-1.167l1.169,-3.136c0.393,-2.059 0.829,-1.832 1.213,-4.035c0.061,-0.352 -0.051,-0.42 -0.802,-0.42c-0.852,-0 -1.607,0.992 -0.944,-1.373c0.107,-0.381 -0.137,-1.007 -0.316,-2.156c-0.293,-1.87 -0.285,-2.197 0.07,-3.128c0.219,-0.571 0.397,-1.662 0.397,-2.423c0,-0.761 0.148,-1.676 0.329,-2.032c0.181,-0.357 0.402,-1.458 0.491,-2.448c0.242,-2.678 0.25,-2.74 0.424,-3.008c0.088,-0.136 0.395,-1.798 0.682,-3.693c0.563,-3.718 1.276,-5.846 2.611,-7.785c1.022,-1.485 1.743,-1.903 4.162,-2.411c1.089,-0.228 3.007,-0.725 4.261,-1.103c2.807,-0.848 5.726,-1.442 7.046,-1.435c0.547,0.003 1.465,0.219 2.04,0.48c0.154,0.07 3.656,1.175 3.818,1.209c0.757,0.157 1.798,0.483 2.314,0.724c0.248,0.116 4.766,0.922 6.962,0.466c0.728,-0.151 2.378,-0.812 3.667,-1.468c1.983,-1.01 2.708,-1.244 4.706,-1.524c2.339,-0.326 3.287,-0.756 3.287,-1.488c0,-0.488 3.562,-3.936 4.35,-4.21c0.38,-0.133 0.69,-0.329 0.69,-0.436c0,-0.21 3.498,-3.17 4.68,-3.959c0.396,-0.265 1.26,-0.736 1.92,-1.046c0.66,-0.311 1.388,-0.662 1.617,-0.779c0.229,-0.118 0.661,-0.216 0.96,-0.217c1.241,-0.008 1.561,-0.264 2.131,-1.698c0.592,-1.49 1.235,-1.876 1.537,-0.923c0.151,0.475 0.172,0.478 0.479,0.06c0.299,-0.407 0.339,-0.388 0.602,0.284c0.216,0.551 0.215,0.984 -0.002,1.851c-0.24,0.959 -0.226,1.213 0.096,1.673c0.209,0.299 0.38,0.676 0.38,0.838c0,0.163 0.27,0.566 0.6,0.896c0.33,0.33 0.602,0.794 0.603,1.031c0.003,0.375 1.028,1.582 5.314,6.258c0.852,0.929 0.927,1.114 0.781,1.92c-0.088,0.491 -0.208,0.976 -0.266,1.077c-0.151,0.263 -2.393,1.376 -2.774,1.376c-0.175,-0 -0.709,-0.369 -1.186,-0.82c-0.478,-0.45 -1.366,-1.039 -1.973,-1.307c-0.984,-0.435 -3.916,-0.993 -5.22,-0.993c-0.92,-0 -1.995,1.443 -2.95,3.96c-1.384,3.645 -2.097,5.185 -2.891,6.239c-1.383,1.839 -1.576,2.28 -1.705,3.907c-0.206,2.595 -0.765,4.77 -1.556,6.055c-0.406,0.66 -0.833,1.199 -0.949,1.199c-0.675,-0 -1.284,3.466 -1.676,9.553c-0.168,2.604 -0.347,3.839 -0.614,4.247c-0.26,0.397 -0.418,1.423 -0.512,3.34c-0.161,3.275 0.187,4.559 1.512,5.57c0.82,0.625 1.782,1.953 1.782,2.458c0,0.176 -0.58,0.272 -1.642,0.272c-1.985,-0 -2.501,-0.382 -2.289,-1.693c0.118,-0.722 0.008,-0.974 -0.84,-1.937l-0.974,-1.107l0.216,-2.012c0.237,-2.195 0.146,-5.773 -0.185,-7.291l-0.209,-0.96l-0.175,0.72c-0.205,0.845 -0.447,1.385 -1.114,2.488c-0.381,0.629 -0.546,1.532 -0.746,4.08c-0.276,3.518 -0.238,3.746 0.89,5.295c0.33,0.453 0.561,0.939 0.515,1.08c-0.047,0.141 -0.778,0.29 -1.625,0.33c-1.34,0.063 -1.595,0.005 -1.961,-0.447c-0.544,-0.672 -0.531,-1.091 0.059,-1.841c0.578,-0.734 0.618,-1.573 0.1,-2.091c-0.346,-0.346 -0.335,-0.627 0.12,-3.197c0.275,-1.55 0.504,-3.789 0.508,-4.977c0.004,-1.188 0.163,-3.294 0.352,-4.68c0.19,-1.386 0.349,-3.33 0.353,-4.32l0.007,-1.8l-5.1,-0.009c-4.498,-0.008 -5.326,-0.071 -7.02,-0.538c-2.528,-0.696 -5.822,-2.35 -7.98,-4.006c-0.957,-0.735 -1.74,-1.239 -1.74,-1.12c0,0.119 -0.887,1.109 -1.971,2.201c-1.198,1.205 -2.386,2.701 -3.025,3.808c-0.579,1.003 -1.274,2.202 -1.544,2.664c-1.621,2.767 -2.1,4.056 -2.114,5.693c-0.009,0.895 -0.104,2.437 -0.213,3.427c-0.121,1.102 -0.096,2.729 0.065,4.2c0.293,2.685 0.598,3.31 2.46,5.044c1.435,1.336 1.372,1.844 -0.26,2.093c-0.659,0.1 -1.597,0.12 -2.086,0.043l-0.889,-0.139l-0.071,-1.351c-0.065,-1.217 -0.131,-1.365 -0.672,-1.49c-0.583,-0.136 -0.607,-0.227 -0.875,-3.25c-0.292,-3.294 -0.794,-6.637 -1.483,-9.882l-0.419,-1.971l-1.165,1.131c-0.756,0.734 -1.46,1.765 -2.002,2.932c-0.46,0.99 -1.195,2.565 -1.634,3.501c-1.538,3.277 -2.298,5.655 -2.142,6.699c0.14,0.936 0.819,2.04 1.255,2.04c0.119,-0 0.465,0.441 0.768,0.98c0.394,0.702 0.478,1.055 0.293,1.24c-0.422,0.422 -2.707,0.468 -3.585,0.071Zm6.558,-24.292c0.082,-0.373 0.247,-0.895 0.368,-1.159c0.31,-0.679 0.234,-2.378 -0.188,-4.2c-0.199,-0.858 -0.505,-2.37 -0.681,-3.36l-0.319,-1.8l0.111,2.4c0.061,1.32 0.178,2.768 0.26,3.219c0.128,0.707 0.092,0.797 -0.266,0.659c-0.379,-0.145 -0.4,-0.003 -0.247,1.635c0.175,1.864 0.034,3.007 -0.371,3.007c-0.13,-0 -0.236,-0.342 -0.236,-0.76c0,-1.285 -0.165,-0.654 -0.325,1.24l-0.152,1.8l0.949,-1.001c0.522,-0.55 1.016,-1.306 1.097,-1.68Z"/><path d="M23.386,5.669l-11.339,21.26l-6.378,0l11.339,-21.26l6.378,0Z"/></svg>