<?xml version="1.0" encoding="UTF-8" standalone="no"?><!DOCTYPE svg PUBLIC "-//W3C//DTD SVG 1.1//EN" "http://www.w3.org/Graphics/SVG/1.1/DTD/svg11.dtd"><svg width="100%" height="100%" viewBox="0 0 182 182" version="1.1" xmlns="http://www.w3.org/2000/svg" xmlns:xlink="http://www.w3.org/1999/xlink" xml:space="preserve" xmlns:serif="http://www.serif.com/" style="fill-rule:evenodd;clip-rule:evenodd;stroke-linejoin:round;stroke-miterlimit:2;"><path id="path1" d="M52.143,122.804c-27.279,-32.237 -49.95,-59.579 -50.379,-60.759c-0.428,-1.18 -1.001,-5.706 -1.272,-10.059l-0.492,-7.914l11.152,-5.012c7.21,-3.24 11.446,-4.798 11.984,-4.409c0.457,0.332 24.14,26.568 52.627,58.303l51.795,57.701l-0.831,8.364c-0.457,4.6 -1.105,8.721 -1.439,9.158c-0.519,0.678 -22.632,13.24 -23.307,13.24c-0.131,0 -22.558,-26.376 -49.838,-58.613Zm65.631,39.958c0.12,-1.036 0.021,-1.883 -0.219,-1.883c-0.24,0 -2.26,1.001 -4.488,2.225c-3.447,1.893 -4.052,2.511 -4.059,4.146l-0.008,1.92l4.279,-2.263c3.475,-1.837 4.32,-2.616 4.496,-4.145l-0.001,-0Zm-14.667,-18.423l3.043,-1.478l-2.077,-2.585l-2.077,-2.585l-3.306,1.839l-3.306,1.838l2.15,2.225c1.183,1.224 2.236,2.225 2.34,2.225c0.104,-0 1.559,-0.666 3.233,-1.479Zm-16.863,-19.279l2.917,-1.527l-1.916,-2.294l-1.915,-2.295l-3.205,1.629l-3.205,1.629l1.74,2.223c0.957,1.223 1.948,2.21 2.204,2.193c0.255,-0.018 1.776,-0.718 3.38,-1.558Zm-16.376,-18.512l2.971,-1.555l-3.648,-4.335l-2.858,1.441c-1.573,0.793 -2.972,1.543 -3.11,1.666c-0.295,0.263 2.827,4.321 3.332,4.331c0.188,0.002 1.679,-0.693 3.313,-1.548Zm-13.366,-18.866c0.308,-0.307 -0.163,-1.398 -1.047,-2.425l-1.606,-1.867l-3.23,1.569l-3.23,1.569l1.808,1.887c1.761,1.838 1.871,1.86 4.277,0.856c1.358,-0.567 2.721,-1.282 3.028,-1.589Zm-17.105,-16.058l2.622,-1.089l-2.872,-4.033l-3.357,1.491l-3.357,1.491l1.762,1.859c0.969,1.022 1.946,1.748 2.171,1.614c0.224,-0.135 1.588,-0.734 3.031,-1.333Zm-13.528,-19.517l-1.689,-1.689l-2.774,1.251c-1.525,0.688 -2.774,1.415 -2.774,1.616c0,0.201 0.651,1.058 1.446,1.904l1.445,1.538l3.017,-1.466l3.018,-1.466l-1.689,-1.688Z" style="fill-rule:nonzero;"/><path id="walk" d="M58.721,62.301c0,-0 0,-0 0.001,-0c9.539,-1.33 13.405,-3.084 13.405,-6.069c0,-1.99 14.527,-16.052 17.741,-17.17c1.55,-0.542 2.814,-1.342 2.814,-1.778c0,-0.857 14.267,-12.929 19.087,-16.146c1.615,-1.081 5.139,-3.002 7.831,-4.266c2.691,-1.269 5.66,-2.7 6.594,-3.177c0.934,-0.482 2.696,-0.881 3.916,-0.886c5.061,-0.032 6.366,-1.076 8.691,-6.925c2.414,-6.076 5.037,-7.651 6.268,-3.764c0.616,1.937 0.702,1.95 1.954,0.245c1.219,-1.66 1.382,-1.583 2.455,1.158c0.881,2.247 0.877,4.013 -0.008,7.549c-0.979,3.911 -0.922,4.947 0.391,6.823c0.853,1.22 1.55,2.757 1.55,3.418c0,0.665 1.101,2.308 2.447,3.654c1.346,1.346 2.455,3.238 2.459,4.205c0.013,1.529 4.193,6.452 21.673,25.523c3.475,3.788 3.781,4.543 3.185,7.83c-0.359,2.003 -0.848,3.981 -1.085,4.392c-0.616,1.073 -9.759,5.612 -11.313,5.612c-0.714,0 -2.892,-1.505 -4.837,-3.344c-1.95,-1.835 -5.571,-4.237 -8.047,-5.33c-4.013,-1.775 -15.971,-4.05 -21.289,-4.05c-3.752,-0 -8.136,5.885 -12.031,16.15c-5.645,14.866 -8.553,21.147 -11.791,25.445c-4.742,6.306 -6.053,8.581 -6.664,13.089l-45.397,-52.188Z"/></svg>